<!DOCTYPE svg PUBLIC "-//W3C//DTD SVG 1.1//EN" "http://www.w3.org/Graphics/SVG/1.1/DTD/svg11.dtd">
<!-- Uploaded to: SVG Repo, www.svgrepo.com, Transformed by: SVG Repo Mixer Tools -->
<svg fill="#000000" version="1.1" id="Layer_1" xmlns:x="&amp;ns_extend;" xmlns:i="&amp;ns_ai;" xmlns:graph="&amp;ns_graphs;" xmlns="http://www.w3.org/2000/svg" xmlns:xlink="http://www.w3.org/1999/xlink" width="800px" height="800px" viewBox="0 0 24 24" enable-background="new 0 0 24 24" xml:space="preserve">
<g id="SVGRepo_bgCarrier" stroke-width="0"/>
<g id="SVGRepo_tracerCarrier" stroke-linecap="round" stroke-linejoin="round"/>
<g id="SVGRepo_iconCarrier"> <metadata> <sfw> <slices> </slices> <slicesourcebounds width="505" height="984" bottomleftorigin="true" x="0" y="-552"> </slicesourcebounds> </sfw> </metadata> <g> <g> <g> <path d="M8,17H1c-0.6,0-1-0.4-1-1V1c0-0.6,0.4-1,1-1h15c0.6,0,1,0.4,1,1v7c0,0.6-0.4,1-1,1s-1-0.4-1-1V2H2v13h6c0.6,0,1,0.4,1,1 S8.6,17,8,17z"/> </g> </g> <g> <g> <path d="M23,24H8c-0.6,0-1-0.4-1-1V8c0-0.6,0.4-1,1-1h15c0.6,0,1,0.4,1,1v15C24,23.6,23.6,24,23,24z M9,22h13V9H9V22z"/> </g> </g> </g> </g>
</svg>